<?xml version="1.0" standalone="no"?>
<!DOCTYPE svg PUBLIC "-//W3C//DTD SVG 20010904//EN"
 "http://www.w3.org/TR/2001/REC-SVG-20010904/DTD/svg10.dtd">
<svg version="1.0" xmlns="http://www.w3.org/2000/svg"
 width="250.000000pt" height="198.000000pt" viewBox="0 0 250.000000 198.000000"
 preserveAspectRatio="xMidYMid meet">

<g transform="translate(0.000000,198.000000) scale(0.100000,-0.100000)"
fill="#000000" stroke="none">
<path d="M0 1861 c0 -112 1 -119 25 -141 13 -12 22 -27 19 -31 -3 -5 3 -9 12
-9 10 0 14 -3 11 -6 -4 -4 3 -21 14 -38 13 -19 3 -11 -28 21 l-50 52 0 -37 c0
-20 3 -41 7 -47 16 -23 20 -47 7 -42 -10 4 -13 -2 -11 -21 1 -15 8 -28 13 -30
15 -5 14 -23 -2 -20 -12 3 -13 -9 -4 -65 2 -15 1 -30 -3 -32 -9 -6 11 -65 22
-65 4 0 10 5 13 10 3 6 2 10 -4 10 -6 0 -16 10 -22 23 l-12 22 23 -20 c23 -19
23 -19 16 -1 -6 19 -6 19 12 3 10 -9 23 -17 29 -17 6 0 16 -7 23 -15 7 -8 15
-13 19 -10 4 2 23 -9 43 -25 27 -22 50 -31 97 -36 53 -5 61 -4 61 10 0 10 -15
23 -35 32 -43 18 -49 18 -41 -1 7 -20 -18 -20 -34 0 -7 8 -17 12 -23 8 -6 -3
-7 -1 -3 5 4 7 2 12 -3 12 -6 0 -11 6 -11 14 0 8 -8 17 -17 21 -25 8 -90 65
-75 65 7 0 10 5 6 11 -4 7 -9 8 -17 0 -7 -7 -19 -5 -38 5 -16 8 -29 17 -29 20
0 3 4 3 9 -1 5 -3 12 3 16 14 3 11 12 25 21 32 12 9 13 9 9 -2 -3 -8 3 -24 13
-34 10 -11 25 -31 35 -45 9 -13 27 -25 39 -25 14 0 22 -5 20 -13 -1 -8 2 -11
8 -7 6 4 22 0 35 -9 13 -9 31 -16 40 -16 9 0 18 -6 21 -14 3 -9 12 -12 21 -9
12 5 14 3 8 -7 -6 -9 -4 -11 5 -5 17 11 60 13 60 4 0 -4 -10 -10 -22 -12 l-23
-4 23 -2 c21 -1 22 -5 22 -71 0 -47 -4 -70 -12 -70 -6 0 -3 -7 8 -15 14 -11
15 -15 4 -14 -8 1 -26 1 -40 -1 -23 -1 -24 -2 -5 -11 16 -7 13 -8 -13 -4 -18
2 -31 1 -28 -3 2 -4 -4 -8 -14 -8 -10 0 -16 4 -14 8 3 4 1 8 -5 8 -5 0 -12 -4
-15 -9 -7 -10 -66 9 -66 21 0 4 -7 5 -15 2 -8 -4 -15 -1 -15 6 0 6 -4 8 -10 5
-5 -3 -20 3 -32 14 -12 12 -18 21 -12 21 5 0 -4 7 -20 15 -34 18 -45 13 -25
-12 12 -14 12 -16 -1 -11 -14 5 -16 -12 -15 -129 0 -74 -3 -137 -6 -139 -10
-6 10 -87 22 -95 6 -3 0 -9 -13 -13 -19 -5 -20 -8 -8 -15 20 -12 86 -6 83 8
-2 7 13 11 36 11 34 0 39 3 36 19 -3 15 1 19 17 16 11 -3 23 -7 27 -11 3 -3
-2 -4 -11 -2 -9 1 -18 -1 -20 -7 -2 -5 7 -11 20 -13 23 -3 23 -4 5 -19 -10 -8
-13 -12 -6 -8 19 9 64 -19 102 -64 19 -22 39 -38 45 -35 6 3 3 -1 -6 -9 -10
-8 -15 -17 -11 -20 3 -4 -3 -7 -15 -7 -12 0 -22 -4 -22 -10 0 -5 13 -10 30
-10 19 0 33 -7 40 -20 7 -14 7 -20 0 -20 -5 0 -10 5 -10 10 0 6 -14 10 -31 10
-20 0 -45 12 -73 35 -59 48 -65 44 -11 -6 25 -23 43 -44 41 -47 -3 -2 -20 10
-38 27 -22 21 -39 29 -53 25 -13 -3 -16 -2 -8 3 9 7 6 16 -12 37 -26 31 -26
48 0 26 13 -11 14 -10 10 3 -7 18 -36 27 -87 27 -20 0 -38 4 -40 9 -2 5 -14 3
-28 -4 -25 -14 -25 -14 15 -15 50 0 77 -15 45 -23 -15 -4 -19 -10 -14 -19 6
-10 4 -10 -9 1 -10 8 -20 11 -23 8 -10 -10 -11 -57 -1 -64 6 -4 7 -1 2 6 -6
10 -3 11 14 2 11 -7 21 -14 21 -17 0 -3 -5 -2 -11 1 -13 9 -49 -28 -49 -50 0
-8 6 -15 13 -15 7 0 22 -7 33 -15 18 -14 17 -14 -9 -3 -38 16 -46 1 -48 -82 0
-36 -3 -159 -5 -273 l-5 -208 106 3 c58 2 105 0 105 -3 0 -10 44 -5 52 6 5 6
8 6 8 -1 0 -17 1381 -18 1392 -1 5 8 8 8 8 1 0 -8 36 -12 114 -13 112 -2 115
-1 119 21 l4 23 2 -23 1 -23 292 3 293 3 2 87 c2 78 0 88 -17 93 -18 6 -18 7
-1 24 14 14 18 35 19 97 0 49 -4 82 -11 86 -8 5 -7 8 3 8 13 0 13 1 0 10 -10
6 -11 10 -2 10 21 0 13 30 -15 57 -23 21 -24 24 -6 14 34 -17 40 -12 13 11
-24 20 -24 21 -3 16 16 -4 20 -2 16 8 -3 8 -15 14 -27 15 -19 1 -18 2 4 8 23
6 25 12 25 64 0 46 -3 56 -14 52 -10 -4 -9 1 3 14 15 17 16 23 6 36 -8 9 -8
15 -2 15 7 0 10 35 7 103 -1 56 -4 104 -5 107 -1 3 -3 11 -4 19 0 8 -14 18
-31 23 -28 7 -40 5 -174 -38 -11 -4 -11 -8 3 -23 15 -17 13 -31 -6 -31 -5 0
-6 5 -3 10 3 6 -1 10 -10 10 -12 0 -15 5 -11 17 6 16 6 16 -12 0 -26 -24 -39
-21 -17 3 10 11 13 20 7 20 -6 0 -12 7 -14 15 -2 10 -16 -1 -40 -31 -21 -26
-38 -50 -38 -54 0 -10 49 0 56 11 3 5 20 9 37 8 l32 -1 -30 -10 c-40 -14 -53
-26 -57 -50 -3 -22 -62 -42 -151 -54 -22 -2 -47 -8 -56 -13 -17 -9 -91 -22
-91 -17 0 2 15 15 34 30 24 18 37 23 42 14 4 -6 3 -8 -3 -5 -6 4 -13 0 -17 -8
-7 -19 -4 -19 44 6 22 12 47 19 55 15 8 -3 14 -1 12 3 -1 5 16 23 38 39 22 17
52 53 68 83 l28 54 -31 -35 c-17 -19 -38 -47 -47 -62 -22 -35 -91 -70 -143
-72 -14 -1 -30 -4 -37 -9 -6 -4 -13 -4 -16 0 -2 5 -2 3 -1 -4 4 -15 -33 -39
-89 -58 -35 -12 -51 -13 -77 -4 -29 11 -97 8 -160 -6 -25 -5 -15 0 29 17 43
16 15 19 -30 3 -37 -12 -41 -12 -25 -1 10 8 15 19 12 24 -3 6 -1 13 4 15 7 4
6 5 0 4 -7 -2 -12 -7 -13 -12 -2 -12 -67 -48 -74 -41 -3 2 5 9 16 16 26 13 27
25 4 26 -10 1 -27 4 -38 8 -14 6 -16 5 -7 -2 10 -7 7 -13 -12 -25 -30 -20 -40
-22 -30 -5 5 7 3 8 -5 3 -8 -5 -9 -11 -3 -17 17 -17 1 -46 -32 -59 -17 -7 -35
-15 -41 -17 -5 -2 7 8 28 22 40 29 52 55 16 35 -12 -6 -30 -8 -42 -5 -11 3
-33 -2 -49 -12 -30 -18 -35 -28 -15 -35 6 -2 -4 -3 -23 -2 -19 2 -42 5 -50 8
-8 3 -24 8 -35 10 -11 3 -2 5 20 6 22 1 60 13 85 27 25 13 35 22 23 19 -13 -4
-23 -2 -23 3 0 5 16 13 36 17 20 3 34 9 31 11 -5 5 -109 -19 -157 -36 -14 -4
-38 -11 -53 -14 -15 -4 -25 -11 -22 -16 3 -6 -1 -7 -9 -4 -9 3 -16 10 -16 15
0 6 -94 -26 -110 -38 -2 -2 2 -9 10 -14 12 -9 11 -10 -4 -5 -11 4 -23 0 -31
-10 -6 -9 -25 -16 -41 -16 -16 0 -37 -4 -46 -9 -12 -7 -18 -6 -18 1 0 6 7 13
15 16 16 7 21 24 6 24 -5 0 -16 -6 -24 -14 -12 -12 -18 -10 -45 15 -18 17 -31
38 -31 47 1 15 2 15 6 -1 2 -9 9 -17 14 -17 6 0 8 4 4 9 -3 5 0 13 6 17 7 4 9
3 5 -4 -3 -6 -1 -14 5 -18 8 -5 8 -9 -1 -14 -9 -6 -7 -11 8 -19 21 -11 42 2
22 14 -17 10 -11 23 13 28 19 4 18 4 -5 6 -42 2 -33 21 10 22 54 1 67 5 123
33 27 15 71 29 97 32 26 3 65 9 87 14 60 13 174 21 150 10 -19 -8 -18 -9 5
-10 l25 -2 -25 -8 c-24 -8 -24 -8 7 -9 17 -1 33 -6 35 -13 3 -9 6 -9 12 0 4 7
2 12 -5 12 -6 0 0 11 15 25 15 14 37 25 49 25 18 0 20 2 7 11 -12 9 -12 10 3
5 10 -3 25 1 33 9 19 19 38 19 31 1 -3 -8 0 -16 6 -19 19 -7 80 2 92 14 7 7 5
8 -7 4 -32 -12 -19 4 20 25 23 13 29 19 15 16 -13 -2 -23 0 -23 5 0 5 9 9 21
9 19 0 19 1 5 22 -21 30 -20 50 5 82 13 17 15 24 6 20 -8 -3 -19 -15 -25 -27
-11 -22 -11 -22 -11 -1 -1 30 30 55 58 47 19 -5 22 -3 16 8 -5 8 -4 11 1 6 11
-10 12 -87 2 -80 -5 2 -8 13 -8 24 0 29 -17 14 -25 -21 -4 -17 -11 -28 -16
-24 -15 9 -10 -13 6 -26 13 -11 14 -10 9 5 -5 12 -4 16 3 12 7 -5 9 0 6 14 -5
19 -4 19 20 -5 29 -29 65 -34 73 -11 4 8 11 15 16 15 6 0 5 -6 -2 -15 -10 -12
-9 -15 6 -16 11 -1 6 -4 -11 -8 -27 -6 -28 -7 -8 -13 33 -9 85 22 107 62 l19
36 -37 52 c-20 29 -36 54 -36 57 1 11 -16 31 -50 59 -31 25 -32 28 -10 21 46
-14 92 -38 97 -52 8 -21 21 -5 18 23 l-2 25 23 -22 c13 -12 21 -26 18 -31 -3
-5 -11 -2 -18 8 -12 15 -13 15 -13 -2 0 -11 4 -25 10 -31 6 -9 6 -13 -1 -13
-6 0 -13 6 -16 13 -10 20 2 -25 19 -74 16 -44 16 -48 -2 -69 -56 -69 -66 -76
-118 -75 -28 1 -59 6 -71 13 -31 17 -50 -5 -26 -32 9 -11 11 -16 5 -12 -7 4
-13 3 -13 -2 0 -8 29 -12 78 -12 9 0 36 0 59 0 51 0 107 22 126 50 7 11 16 18
19 15 3 -3 17 10 32 29 47 62 88 103 80 81 -4 -11 9 0 28 24 35 43 95 80 131
81 11 0 15 5 11 11 -4 7 -1 10 7 7 8 -3 24 -1 37 3 15 6 21 5 17 -1 -7 -12 22
-12 50 0 14 6 16 9 5 10 -8 1 -4 6 10 10 24 8 24 8 3 9 -31 1 -29 16 2 17 14
1 25 -2 25 -7 0 -5 5 -9 10 -9 6 0 10 7 10 16 0 11 6 14 20 9 11 -3 20 -2 20
4 0 5 10 13 23 17 35 11 46 35 28 63 -7 12 -17 11 -60 -5 -28 -10 -51 -21 -51
-26 0 -4 7 -4 17 -1 11 4 14 3 9 -5 -13 -22 -36 -13 -34 13 2 17 7 24 16 20 8
-3 20 -1 27 5 7 6 24 13 36 15 13 3 30 13 37 22 11 16 10 18 -9 21 -24 4 -71
-17 -64 -28 2 -4 -2 -7 -10 -7 -18 0 -20 13 -3 20 9 4 9 6 -1 6 -11 1 -10 5 5
16 19 15 19 15 -1 11 -11 -1 -28 -7 -38 -11 -10 -4 -29 -3 -43 4 -27 12 -48 6
-38 -10 3 -5 11 -9 17 -8 26 3 57 -1 57 -8 0 -10 -99 -15 -113 -6 -5 3 -5 8 2
13 7 4 -11 5 -38 4 -28 -2 -53 1 -57 7 -4 7 9 9 37 6 36 -4 40 -2 26 8 -9 7
-27 10 -40 8 -47 -9 -136 84 -128 134 1 6 -4 15 -10 19 -9 5 -10 2 -6 -9 3 -9
1 -19 -5 -23 -6 -4 -8 -3 -5 2 3 6 2 16 -4 24 -7 13 -9 13 -9 0 0 -13 -1 -13
-10 0 -14 22 -12 50 3 44 10 -3 13 3 9 24 -2 16 1 45 6 66 6 21 7 34 1 31 -5
-4 -9 -1 -9 5 0 6 -4 8 -10 5 -12 -8 -13 5 -1 24 5 7 13 11 18 8 6 -4 19 4 31
18 12 14 16 25 10 27 -7 3 -7 12 2 28 8 15 15 20 18 12 2 -6 8 -12 13 -12 12
0 88 53 89 62 0 12 -33 -4 -53 -24 -24 -24 -45 -23 -23 1 24 26 61 38 118 37
25 -1 44 2 42 6 -7 11 -1 10 33 -3 15 -6 51 -12 78 -14 76 -6 88 -10 91 -29 2
-16 1 -16 -15 -2 -11 10 -26 14 -37 10 -16 -5 -16 -4 -4 5 9 7 10 11 3 11 -27
0 -21 -20 12 -40 49 -30 62 -17 60 57 -2 32 -3 61 -4 65 -2 11 -201 8 -201 -4
0 -7 -4 -7 -12 0 -15 11 -84 10 -112 -3 -15 -6 -17 -5 -11 5 5 8 -7 3 -26 -10
-19 -13 -28 -17 -21 -10 6 8 12 17 12 21 0 12 -79 2 -97 -12 -16 -13 -17 -12
-5 3 13 16 -40 17 -861 17 -481 -1 -880 -4 -886 -9 -9 -5 -2 -11 20 -19 24 -8
34 -8 40 0 4 6 11 9 17 5 6 -3 12 0 15 6 3 10 10 8 23 -5 17 -16 17 -17 2 -11
-13 4 -18 1 -18 -11 0 -11 5 -15 15 -11 11 4 15 -2 15 -21 l0 -26 -24 22 c-24
23 -25 23 -19 2 3 -11 9 -21 14 -21 5 0 9 -7 9 -16 0 -8 5 -12 10 -9 6 3 10
-1 10 -10 0 -9 -7 -16 -17 -14 -37 3 -53 -1 -53 -16 0 -8 -7 -15 -15 -15 -8 0
-15 5 -15 11 0 5 -4 7 -10 4 -6 -3 -10 -1 -10 4 0 6 -7 11 -15 11 -7 0 -19 8
-25 18 -9 16 -11 16 -21 -1 -16 -27 -37 -4 -36 39 1 27 9 42 33 64 l33 28
-115 1 -114 0 0 -118z m874 92 c4 -9 2 -20 -4 -23 -8 -5 -7 -9 3 -13 18 -7 29
16 20 40 -5 14 -1 13 25 -6 18 -12 32 -28 32 -34 0 -7 4 -6 11 3 9 13 10 13 6
0 -2 -10 -16 -15 -38 -15 -19 0 -40 -4 -48 -9 -9 -6 -12 -5 -8 1 11 17 -26 10
-44 -8 -18 -18 -9 -37 10 -24 5 3 12 1 16 -4 8 -14 -28 -31 -55 -26 -30 6 -36
13 -22 27 9 9 12 8 12 -5 0 -11 5 -14 15 -11 19 8 1 34 -24 34 -11 1 -8 5 9
15 22 12 23 14 7 20 -14 6 -15 10 -6 21 15 19 30 18 23 -1 -4 -8 -1 -15 5 -15
6 0 11 9 11 19 0 17 11 28 31 30 4 1 10 -7 13 -16z m370 3 c-5 -14 -54 -29
-54 -17 0 4 12 12 28 18 15 6 28 11 29 12 1 1 0 -5 -3 -13z m1113 0 c4 -3 -10
-6 -30 -6 -20 0 -38 3 -41 8 -5 8 62 7 71 -2z m-1767 -6 c9 -6 17 -5 21 1 4 7
9 4 12 -6 4 -9 3 -13 -3 -10 -6 3 -10 -3 -10 -15 0 -14 4 -19 13 -14 6 4 9 4
5 -1 -4 -4 -3 -14 3 -21 8 -10 0 -12 -38 -10 -30 2 -47 7 -45 15 1 6 -2 11 -8
11 -5 0 -7 7 -4 15 5 12 9 11 23 -7 19 -23 41 -18 41 10 0 15 -2 15 -10 2 -8
-13 -10 -12 -10 3 0 9 -7 17 -16 17 -8 0 -12 5 -9 10 8 12 16 12 35 0z m562
-7 c-6 -2 -10 -8 -7 -13 3 -4 -3 -14 -12 -21 -15 -12 -16 -12 -8 1 6 8 10 18
11 23 1 4 2 9 3 12 0 3 7 5 14 4 9 0 9 -2 -1 -6z m118 3 c0 -3 -4 -8 -10 -11
-5 -3 -10 -1 -10 4 0 6 5 11 10 11 6 0 10 -2 10 -4z m870 -1 c0 -2 -10 -9 -22
-15 -22 -11 -22 -10 -4 4 21 17 26 19 26 11z m55 -5 c-11 -5 -27 -9 -35 -9 -9
0 -8 4 5 9 11 5 27 9 35 9 9 0 8 -4 -5 -9z m78 -7 c-7 -2 -19 -2 -25 0 -7 3
-2 5 12 5 14 0 19 -2 13 -5z m182 -11 c-3 -3 -11 0 -18 7 -9 10 -8 11 6 5 10
-3 15 -9 12 -12z m-1184 -15 c-10 -9 -11 -8 -5 6 3 10 9 15 12 12 3 -3 0 -11
-7 -18z m739 13 c0 -5 -4 -10 -10 -10 -5 0 -10 5 -10 10 0 6 5 10 10 10 6 0
10 -4 10 -10z m55 -9 c7 -13 -24 -43 -36 -35 -6 4 -3 14 7 25 20 22 21 22 29
10z m288 2 c-7 -2 -19 -2 -25 0 -7 3 -2 5 12 5 14 0 19 -2 13 -5z m-1473 -31
c60 -3 77 -15 60 -42 -6 -9 -10 -7 -15 9 -4 14 -13 20 -28 17 -28 -4 -60 12
-51 26 4 6 9 6 13 1 3 -6 13 -10 21 -11z m136 3 c-2 -5 -7 -9 -12 -8 -5 1 -9
-12 -9 -28 -1 -16 3 -29 8 -29 5 0 6 7 3 16 -4 12 -2 15 9 10 8 -3 15 -1 15 3
0 5 -6 12 -12 14 -8 3 -5 6 5 6 10 1 15 6 12 11 -9 14 8 12 24 -2 11 -10 13
-10 7 0 -10 17 2 15 20 -3 14 -13 13 -15 -10 -15 -16 0 -29 -8 -37 -22 -9 -19
-9 -21 2 -10 7 6 24 12 39 11 23 -1 23 -2 -10 -17 -19 -8 -43 -14 -54 -13 -11
2 -16 -2 -12 -8 4 -6 5 -11 2 -11 -10 0 -29 43 -33 74 -4 28 -1 31 22 31 14 0
23 -4 21 -10z m139 5 c-3 -5 -12 -10 -18 -10 -7 0 -6 4 3 10 19 12 23 12 15 0z
m88 -5 c-3 -9 -8 -14 -10 -11 -3 3 -2 9 2 15 9 16 15 13 8 -4z m329 -2 c-10
-4 -9 -9 4 -24 21 -24 35 -25 28 -1 -5 14 -4 14 4 2 6 -8 9 -17 6 -21 -2 -4 0
-10 6 -14 15 -9 12 -25 -4 -19 -9 3 -13 -2 -12 -18 2 -27 -14 -54 -23 -39 -11
17 -50 1 -44 -17 4 -12 1 -11 -10 3 -21 27 -44 8 -23 -20 13 -18 15 -18 40 -2
16 11 26 13 26 6 0 -6 -9 -13 -20 -16 -11 -3 -17 -9 -14 -14 9 -15 -13 -10
-26 6 -10 12 -15 13 -20 4 -6 -8 -9 -8 -14 0 -4 6 -2 11 4 11 7 0 9 7 6 16 -4
9 -3 22 1 28 5 7 -2 1 -13 -12 l-21 -24 -26 22 c-26 22 -26 54 -1 75 6 6 15
21 19 35 7 22 6 23 -9 11 -14 -12 -16 -12 -10 2 6 17 54 19 66 2 4 -5 20 -3
40 7 18 9 38 17 43 17 6 -1 4 -3 -3 -6z m-375 -9 c-3 -3 -12 -4 -19 -1 -8 3
-5 6 6 6 11 1 17 -2 13 -5z m-504 -21 c-7 -2 -19 -2 -25 0 -7 3 -2 5 12 5 14
0 19 -2 13 -5z m1217 -32 c-20 -30 -40 -44 -23 -18 27 42 38 56 41 52 2 -2 -6
-18 -18 -34z m-990 -7 c0 0 -10 0 -22 2 -13 1 -27 3 -32 3 -5 1 -3 7 3 15 11
13 15 12 32 -2 10 -9 19 -17 19 -18z m-675 2 c18 -13 18 -14 0 -32 -12 -13
-17 -14 -13 -4 2 8 -5 22 -16 32 -17 14 -18 17 -5 18 8 0 24 -6 34 -14z m105
-11 c0 -21 -2 -24 -13 -13 -10 9 -11 16 -3 25 15 17 16 16 16 -12z m333 18
c-7 -2 -21 -2 -30 0 -10 3 -4 5 12 5 17 0 24 -2 18 -5z m1342 -33 c-4 -12 -9
-19 -12 -17 -3 3 -2 15 2 27 4 12 9 19 12 17 3 -3 2 -15 -2 -27z m-1840 0 c3
-5 1 -10 -4 -10 -6 0 -11 5 -11 10 0 6 2 10 4 10 3 0 8 -4 11 -10z m125 -10
c12 -8 11 -10 -7 -10 -13 0 -23 5 -23 10 0 13 11 13 30 0z m1340 -9 c0 -12
-20 -36 -20 -24 0 6 -3 19 -6 27 -5 12 -2 15 10 10 9 -3 16 -9 16 -13z m227
-23 c-3 -7 -5 -2 -5 12 0 14 2 19 5 13 2 -7 2 -19 0 -25z m104 4 c-12 -22 -5
-55 10 -46 8 5 1 -86 -8 -96 -6 -7 -23 23 -22 40 0 10 3 8 9 -5 8 -17 9 -15 7
10 -1 19 -7 29 -15 27 -10 -2 -11 2 -4 14 5 9 7 25 5 35 -3 11 0 26 7 34 17
21 24 12 11 -13z m-365 -19 c-10 -10 -19 5 -10 18 6 11 8 11 12 0 2 -7 1 -15
-2 -18z m291 5 c-3 -8 -6 -5 -6 6 -1 11 2 17 5 13 3 -3 4 -12 1 -19z m42 -20
c1 -5 -6 -8 -14 -8 -15 0 -21 31 -8 44 7 6 20 -17 22 -36z m-1382 -4 c-3 -3
-12 -4 -19 -1 -8 3 -5 6 6 6 11 1 17 -2 13 -5z m36 -27 c-3 -4 4 -11 15 -14
12 -3 18 -11 15 -19 -3 -8 4 -15 19 -19 16 -4 23 -13 23 -31 0 -13 -5 -22 -11
-20 -6 2 -16 -5 -22 -15 -15 -23 -32 -25 -32 -3 0 11 -5 14 -16 10 -9 -3 -20
-6 -25 -6 -6 0 -7 -4 -4 -10 3 -5 2 -10 -4 -10 -5 0 -13 5 -16 10 -4 6 -14 9
-22 8 -9 -2 -18 3 -20 10 -4 9 1 10 22 2 35 -13 40 -13 25 5 -10 12 -10 15 4
15 9 0 16 -5 16 -12 0 -6 3 -9 6 -5 4 3 -3 18 -15 33 -18 23 -21 24 -21 7 0
-25 -8 -33 -26 -26 -16 6 -19 33 -3 33 5 0 7 -6 3 -12 -4 -8 -2 -8 7 1 11 10
11 15 2 18 -18 6 -16 20 3 27 8 3 12 2 9 -4 -3 -6 -2 -10 4 -10 20 0 21 19 1
25 -34 11 -22 21 20 17 35 -4 39 -2 34 14 -5 15 -4 16 4 4 6 -8 8 -18 5 -23z
m53 21 c4 -7 3 -8 -4 -4 -7 4 -12 3 -12 -3 0 -5 5 -13 10 -16 6 -3 10 -12 10
-18 0 -7 -5 -4 -11 6 -6 9 -15 15 -20 11 -12 -7 -7 19 6 28 13 10 13 10 21 -4z
m357 -15 c-7 -2 -19 -2 -25 0 -7 3 -2 5 12 5 14 0 19 -2 13 -5z m904 -35 c-3
-8 -6 -5 -6 6 -1 11 2 17 5 13 3 -3 4 -12 1 -19z m-942 -5 c-11 -3 -26 -10
-32 -15 -9 -7 -13 -7 -13 0 0 13 18 21 45 20 l20 0 -20 -5z m261 -3 c19 0 34
-4 34 -10 0 -5 -14 -7 -32 -4 -25 4 -29 3 -18 -5 8 -6 22 -11 30 -11 9 0 16
-9 16 -21 0 -20 -8 -21 -68 -3 -10 3 -18 1 -18 -5 0 -7 -8 -7 -25 -1 -27 10
-113 3 -131 -12 -17 -13 -74 -18 -74 -7 0 5 7 12 15 15 8 4 13 10 10 14 -2 4
9 6 25 4 16 -2 32 2 36 8 4 7 3 8 -4 4 -7 -4 -19 -3 -28 2 -21 12 79 24 139
17 l42 -5 -40 15 -40 15 49 -5 c27 -3 64 -5 82 -5z m-1200 -21 c19 -22 19 -22
-3 -10 -13 6 -23 16 -23 21 0 15 5 12 26 -11z m1391 -14 c14 -9 22 -19 19 -22
-3 -3 -17 2 -30 11 -14 9 -32 16 -39 16 -8 0 -20 7 -27 15 -10 12 -7 13 20 5
18 -5 44 -17 57 -25z m380 22 c-3 -7 10 -23 28 -36 25 -17 34 -32 39 -64 5
-31 9 -38 16 -27 15 24 11 6 -6 -28 -8 -18 -13 -36 -9 -42 3 -5 0 -10 -9 -10
-8 0 -17 6 -19 13 -4 9 -8 8 -16 -3 -8 -11 -6 -17 7 -22 14 -7 14 -7 -3 -5
-11 2 -19 9 -17 15 1 7 -5 12 -13 12 -8 0 -15 -4 -15 -10 0 -17 -36 -11 -55
10 -21 23 -44 28 -25 5 10 -12 10 -15 -1 -15 -8 0 -22 18 -31 39 -19 40 -24
66 -8 41 5 -8 10 -10 10 -5 0 6 -6 19 -13 30 -8 11 -17 28 -20 38 -6 15 -4 16
13 7 15 -8 20 -8 18 1 -3 13 28 32 72 44 19 5 21 4 10 -4 -13 -9 -13 -11 1
-11 19 0 42 24 32 33 -3 4 -1 7 6 7 7 0 11 -6 8 -13z m137 -13 c3 -8 2 -12 -4
-9 -6 3 -10 10 -10 16 0 14 7 11 14 -7z m-579 -15 c30 -11 55 -25 55 -30 0 -6
-7 -6 -19 0 -10 6 -21 8 -24 4 -3 -3 -13 2 -22 11 -9 9 -25 16 -35 16 -10 0
-22 5 -25 10 -9 15 8 12 70 -11z m120 -15 c9 -14 21 -22 28 -18 7 4 9 4 5 -1
-4 -4 6 -23 23 -42 16 -19 29 -39 27 -45 -4 -10 -19 -12 -17 -2 0 4 -5 10 -12
15 -7 4 -14 15 -15 24 -3 18 -12 31 -18 24 -2 -2 -1 -18 1 -36 3 -21 14 -36
32 -45 15 -8 27 -23 29 -37 2 -24 2 -24 -18 -6 -11 10 -20 24 -20 32 0 8 -5
11 -11 8 -12 -8 -49 22 -49 39 0 6 -12 19 -27 29 -27 16 -27 17 -4 14 13 -2
32 -14 42 -28 15 -19 19 -21 19 -7 0 10 -14 27 -30 40 -26 19 -28 23 -14 31
14 8 14 11 -2 28 -16 17 -16 19 -2 14 9 -4 24 -18 33 -31z m416 19 c13 -16 12
-17 -3 -4 -17 13 -22 21 -14 21 2 0 10 -8 17 -17z m26 -35 c-3 -8 -6 -5 -6 6
-1 11 2 17 5 13 3 -3 4 -12 1 -19z m-1807 -14 c0 -8 7 -17 15 -20 8 -4 13 -10
10 -15 -6 -9 32 -34 55 -34 8 -1 14 -6 13 -13 -4 -17 37 -37 82 -39 106 -4
124 -7 114 -19 -7 -8 -2 -10 18 -8 21 3 20 1 -7 -7 -93 -28 -100 -28 -110 -9
-9 16 -15 17 -41 8 -23 -8 -33 -7 -42 2 -9 10 -7 11 13 5 24 -7 24 -7 5 11
-10 11 -21 19 -24 20 -32 5 -136 117 -125 135 7 13 24 1 24 -17z m756 11 c-11
-8 -25 -15 -30 -15 -6 1 0 7 14 15 32 19 40 18 16 0z m1022 -10 c-3 -3 -9 2
-12 12 -6 14 -5 15 5 6 7 -7 10 -15 7 -18z m-586 4 c16 -9 23 -8 29 2 6 10 9
10 9 2 0 -21 -19 -24 -47 -9 -16 8 -24 15 -20 16 5 0 18 -5 29 -11z m-1272 -7
c0 -5 -7 -9 -15 -9 -8 0 -12 4 -9 9 3 4 9 8 15 8 5 0 9 -4 9 -8z m1144 -2 c24
-1 27 -3 15 -10 -10 -6 -37 -6 -70 -1 -72 12 -112 4 -106 -20 3 -12 -2 -20
-15 -25 -15 -4 -17 -8 -8 -14 8 -5 -6 -14 -39 -25 -28 -9 -51 -20 -51 -24 0
-3 -16 -15 -35 -25 -19 -11 -35 -23 -35 -28 0 -5 -4 -6 -10 -3 -5 3 -10 2 -10
-3 0 -17 12 -21 35 -12 19 7 24 6 23 -8 0 -9 3 -33 6 -52 7 -35 7 -35 -8 5 -9
22 -16 42 -16 44 0 2 -3 2 -6 -1 -3 -4 -1 -15 5 -26 5 -10 7 -29 4 -41 -7 -28
-54 -53 -74 -40 -11 8 -10 9 6 7 23 -3 28 23 5 29 -13 4 -13 3 0 -6 12 -9 11
-11 -7 -11 -12 0 -25 -4 -28 -10 -3 -5 -11 -10 -17 -10 -6 0 -2 10 10 23 11
12 22 33 25 47 2 14 2 19 0 13 -3 -7 -9 -13 -14 -13 -6 0 -7 -4 -4 -10 3 -5 1
-10 -4 -10 -18 0 -12 35 9 57 18 20 18 22 2 26 -10 3 -6 5 11 6 15 0 30 8 33
16 4 8 11 15 18 15 14 1 93 60 79 60 -6 0 -14 7 -17 16 -4 11 -1 14 12 10 10
-4 36 0 58 8 31 12 34 15 15 15 -13 1 -21 4 -18 8 15 15 105 32 146 28 24 -3
58 -5 75 -5z m-430 -24 c-10 -8 -30 -24 -43 -35 -17 -15 -27 -18 -32 -10 -4 8
-11 5 -18 -10 -7 -12 -16 -19 -21 -16 -5 3 -34 -1 -65 -9 -70 -18 -72 -6 -2
15 28 8 51 20 50 25 -1 6 16 9 37 8 29 -1 46 5 72 26 18 15 35 26 37 24 3 -3
-4 -11 -15 -18z m536 9 c11 7 90 -70 90 -87 0 -6 -14 3 -31 20 -17 18 -51 41
-75 52 -47 20 -61 36 -18 20 14 -6 30 -8 34 -5z m736 -69 c4 -41 4 -41 13 -28
6 10 11 9 22 -4 12 -16 12 -17 -3 -11 -28 10 -27 -16 1 -40 14 -11 23 -24 20
-27 -8 -9 -61 42 -55 53 6 9 -17 61 -46 103 -10 14 -18 29 -18 32 0 11 65 -66
66 -78z m-1256 39 c-13 -14 -28 -25 -34 -25 -11 1 40 50 51 50 4 0 -4 -11 -17
-25z m105 15 c-3 -5 -14 -10 -24 -10 -33 0 -72 -39 -67 -66 3 -13 1 -22 -4
-19 -5 3 -26 -15 -46 -40 -40 -47 -59 -58 -49 -26 4 12 0 21 -11 25 -16 6 -16
8 0 25 9 9 13 21 9 26 -5 4 -3 5 4 1 6 -3 18 2 25 11 14 19 109 69 143 77 11
2 21 4 23 5 2 0 0 -3 -3 -9z m-741 -49 c-7 -7 -34 21 -34 36 0 10 6 8 19 -8
11 -13 18 -26 15 -28z m1033 33 c-3 -3 -12 -4 -19 -1 -8 3 -5 6 6 6 11 1 17
-2 13 -5z m114 -11 c13 -15 12 -15 -11 -3 -34 17 -36 20 -18 20 9 0 22 -7 29
-17z m-691 -3 c0 -5 -5 -10 -11 -10 -5 0 -7 5 -4 10 3 6 8 10 11 10 2 0 4 -4
4 -10z m701 -40 c29 -30 42 -52 49 -89 9 -51 -2 -121 -21 -121 -5 0 -4 14 4
33 21 52 1 127 -48 177 -21 22 -36 40 -31 40 4 0 25 -18 47 -40z m77 -55 c3
-42 14 -61 31 -51 6 4 5 20 -5 48 -17 49 -17 51 -3 42 8 -4 9 1 4 17 -5 18 -4
20 4 9 6 -8 10 -30 9 -49 -1 -19 4 -37 10 -39 7 -2 12 -10 12 -18 0 -8 3 -14
8 -14 13 0 28 34 27 63 -1 30 11 36 19 9 7 -22 -10 -83 -26 -94 -10 -5 -8 -8
5 -8 9 0 17 7 17 15 0 8 7 15 16 15 12 0 15 7 12 25 -3 13 -1 22 3 19 5 -3 9
-14 9 -25 0 -10 5 -19 10 -19 13 0 7 -60 -9 -86 -10 -16 -11 -12 -7 26 5 44 5
44 -5 10 -18 -64 -19 -64 -31 -52 -9 9 -9 15 0 24 7 7 12 19 11 28 0 10 -2 11
-6 2 -2 -6 -9 -10 -14 -7 -5 4 -7 -8 -5 -25 3 -28 -1 -34 -28 -45 -17 -8 -32
-9 -34 -4 -2 4 -14 1 -28 -7 -13 -9 -24 -12 -24 -6 0 5 9 12 20 15 11 3 20 12
20 20 0 10 -7 15 -20 12 -16 -3 -20 2 -20 21 0 13 5 24 11 24 6 0 8 -7 5 -16
-3 -8 -2 -12 4 -9 9 6 9 63 -2 80 -3 6 -9 24 -12 42 -4 17 -14 37 -22 43 -7 7
-12 16 -9 20 3 4 -2 11 -11 14 -8 3 -12 11 -8 17 13 21 59 -43 62 -86z m-828
75 c0 -5 -8 -10 -17 -10 -15 0 -16 2 -3 10 19 12 20 12 20 0z m280 -5 c-7 -8
-17 -15 -22 -15 -6 0 -5 7 2 15 7 8 17 15 22 15 6 0 5 -7 -2 -15z m419 -14
c-6 -2 -18 4 -27 13 -15 15 -15 15 10 4 15 -7 23 -15 17 -17z m-559 4 c0 -12
-89 -61 -115 -63 -27 -1 -28 0 -13 12 10 7 16 15 13 18 -5 5 15 8 51 8 12 0
27 7 34 15 12 14 30 20 30 10z m165 -16 c-4 -5 -16 -9 -28 -9 -21 1 -21 1 -3
15 20 15 41 11 31 -6z m-651 -18 c-2 -3 -12 3 -22 13 -16 17 -16 18 5 5 12 -7
20 -15 17 -18z m276 14 c0 -8 -4 -15 -10 -15 -5 0 -7 7 -4 15 4 8 8 15 10 15
2 0 4 -7 4 -15z m975 -5 c-3 -5 1 -10 7 -13 10 -3 10 -8 2 -17 -9 -9 -14 -4
-22 19 -9 24 -8 29 4 24 7 -3 12 -9 9 -13z m497 2 c-9 -3 -9 -9 -1 -24 11 -20
11 -20 -14 -2 -18 13 -21 20 -11 22 8 2 14 8 14 13 0 6 5 7 12 3 9 -6 9 -9 0
-12z m-1868 -18 c5 -14 4 -15 -9 -4 -17 14 -19 20 -6 20 5 0 12 -7 15 -16z
m476 6 c0 -5 -5 -10 -11 -10 -5 0 -7 5 -4 10 3 6 8 10 11 10 2 0 4 -4 4 -10z
m671 -7 c13 -16 12 -17 -3 -4 -17 13 -22 21 -14 21 2 0 10 -8 17 -17z m-568
-9 c-3 -9 0 -19 6 -24 16 -9 -43 -60 -70 -60 -13 0 -19 -7 -19 -21 0 -19 1
-19 16 -5 8 9 23 16 32 16 15 0 15 -2 2 -10 -13 -8 -12 -10 3 -10 9 0 26 9 37
20 25 25 34 26 26 3 -5 -16 -5 -16 6 -2 7 9 23 21 35 28 19 9 22 9 17 -3 -5
-14 -52 -50 -65 -51 -11 0 -84 -40 -87 -47 -2 -5 -10 -8 -17 -8 -17 0 -26 148
-9 154 6 2 9 -7 6 -25 -2 -16 0 -29 4 -29 16 0 76 41 70 47 -3 3 -17 -2 -30
-11 -37 -24 -43 -20 -10 6 16 12 33 28 37 35 11 18 18 16 10 -3z m497 -7 c0 5
11 -10 24 -32 17 -27 21 -42 13 -47 -8 -5 -7 -12 5 -25 8 -10 19 -29 23 -43 4
-14 14 -33 23 -42 8 -10 11 -18 5 -18 -11 0 -53 54 -53 68 0 5 -7 15 -15 22
-12 10 -13 7 -5 -20 5 -18 15 -38 21 -46 9 -12 9 -18 0 -27 -7 -7 -11 -7 -10
-2 5 17 -35 114 -43 109 -5 -3 -8 -2 -7 3 8 44 -17 36 -30 -10 l-9 -32 -1 34
c-1 26 -4 32 -17 27 -13 -5 -15 -2 -11 15 5 20 5 20 -11 3 -12 -12 -16 -30
-13 -58 4 -52 -10 -40 -16 12 -4 38 9 61 39 66 20 3 38 16 38 28 0 5 -7 8 -15
4 -13 -4 -14 -2 -5 14 10 19 13 19 40 5 17 -9 30 -12 30 -8z m51 6 c13 -16 12
-17 -3 -4 -10 7 -18 15 -18 17 0 8 8 3 21 -13z m66 2 c-3 -7 3 -24 13 -37 11
-13 19 -18 20 -12 0 5 -5 15 -12 22 -6 6 -9 14 -6 18 8 8 24 -23 31 -63 4 -19
2 -33 -3 -33 -6 0 -10 5 -10 11 0 5 -4 7 -10 4 -6 -3 -10 5 -10 19 0 14 -4 28
-10 31 -5 3 -10 1 -10 -4 0 -6 -8 -11 -17 -10 -11 0 -13 3 -5 6 6 2 10 9 7 13
-3 5 0 18 7 30 15 23 23 26 15 5z m-799 -25 c0 -20 -4 -30 -14 -30 -8 0 -14
-7 -14 -15 0 -17 -45 -21 -55 -4 -11 16 5 25 16 9 9 -13 10 -13 8 0 -3 30 2
38 26 44 14 4 25 11 25 16 0 25 7 7 8 -20z m1407 20 c-3 -5 -1 -10 5 -10 27 0
-2 -16 -32 -17 -31 -2 -31 -1 -10 9 12 6 22 15 22 20 0 4 5 8 11 8 5 0 7 -4 4
-10z m247 -4 c10 -7 15 -16 12 -19 -9 -8 -54 15 -48 24 7 12 16 11 36 -5z
m-909 -47 c3 -10 1 -17 -4 -13 -5 3 -9 11 -9 19 0 7 -7 15 -15 19 -8 3 -15 11
-15 17 0 18 37 -18 43 -42z m567 41 c0 -5 -10 -10 -22 -9 -22 0 -22 1 -3 9 11
5 21 9 23 9 1 1 2 -3 2 -9z m-720 -3 c0 -2 -11 -13 -25 -25 -15 -13 -25 -17
-25 -9 0 10 8 17 48 36 1 0 2 0 2 -2z m-66 -86 c-2 -2 -4 1 -4 8 0 7 -4 10 -8
7 -5 -3 -6 9 -3 27 l5 32 7 -35 c4 -19 6 -37 3 -39z m970 40 c-2 -3 -12 3 -22
13 -16 17 -16 18 5 5 12 -7 20 -15 17 -18z m63 -11 c6 0 16 -7 23 -15 17 -20
8 -19 -34 5 -19 12 -37 28 -41 38 -4 12 0 11 18 -6 13 -12 28 -22 34 -22z
m-460 -2 c-3 -7 -5 -2 -5 12 0 14 2 19 5 13 2 -7 2 -19 0 -25z m66 2 c3 -11 1
-18 -4 -14 -5 3 -9 12 -9 20 0 20 7 17 13 -6z m-677 -15 c-3 -9 -10 -13 -16
-10 -6 4 -5 11 3 20 15 16 22 11 13 -10z m315 -12 c7 -18 5 -28 -5 -39 -13
-12 -14 -10 -9 21 4 28 2 35 -11 35 -11 0 -16 -9 -17 -27 0 -24 -1 -25 -8 -8
-10 25 7 55 27 48 7 -3 18 -17 23 -30z m834 19 c-3 -3 -11 0 -18 7 -9 10 -8
11 6 5 10 -3 15 -9 12 -12z m50 8 c3 -5 1 -10 -4 -10 -6 0 -11 5 -11 10 0 6 2
10 4 10 3 0 8 -4 11 -10z m79 -12 c5 -22 3 -22 -34 -3 -38 20 -38 25 -1 22 19
-1 32 -9 35 -19z m-309 1 c3 -4 -15 -7 -40 -7 -25 -1 -45 2 -45 6 0 10 76 10
85 1z m-1605 -19 c0 -5 -5 -10 -11 -10 -5 0 -7 5 -4 10 3 6 8 10 11 10 2 0 4
-4 4 -10z m118 -36 c2 -31 0 -36 -9 -24 -9 12 -10 11 -6 -7 6 -26 -8 -31 -17
-7 -10 26 -7 34 12 35 13 0 12 2 -5 9 -13 5 -23 15 -23 23 0 8 9 13 23 12 18
-1 22 -8 25 -41z m1747 36 c3 -5 -3 -10 -14 -10 -12 0 -21 5 -21 10 0 6 6 10
14 10 8 0 18 -4 21 -10z m-1187 -32 c-1 -37 1 -48 13 -48 5 0 7 5 3 12 -4 6
-3 8 3 5 5 -3 8 -21 7 -38 -2 -36 31 -110 66 -146 11 -13 17 -23 13 -23 -15 0
-67 50 -69 67 -4 28 -26 73 -35 73 -5 0 -3 -13 6 -30 17 -33 20 -64 5 -55 -5
3 -10 14 -10 24 0 18 -39 75 -40 58 0 -9 34 -89 55 -131 9 -16 13 -31 10 -34
-3 -3 -5 0 -5 6 0 7 -4 12 -9 12 -4 0 -6 -11 -3 -25 3 -20 7 -23 17 -15 11 9
12 7 8 -9 -6 -23 14 -54 29 -45 5 3 4 -4 -4 -15 -11 -18 -11 -23 2 -31 13 -8
12 -10 -2 -10 -10 0 -18 -5 -18 -11 0 -5 5 -7 11 -3 7 4 10 1 7 -7 -3 -8 -12
-13 -20 -11 -9 1 -18 -7 -21 -19 -4 -15 -11 -20 -21 -16 -9 4 -16 3 -16 -2 0
-12 -59 -38 -103 -44 -29 -5 -39 -2 -44 9 -4 12 -8 13 -14 3 -4 -7 -17 -13
-28 -14 -11 -1 -17 3 -14 8 3 6 0 15 -8 21 -8 6 -14 17 -15 24 -1 6 -2 24 -2
38 -1 14 -6 22 -12 19 -5 -3 -10 1 -10 10 0 9 -4 13 -10 10 -6 -3 -7 1 -4 10
6 14 8 14 20 -2 11 -14 13 -15 14 -3 0 33 -15 41 -40 20 -13 -11 -30 -20 -38
-20 -9 0 6 14 31 31 26 17 47 36 47 42 0 7 -5 5 -10 -3 -9 -13 -10 -13 -10 1
0 8 6 21 13 28 10 12 8 13 -8 7 -19 -6 -19 -5 -2 8 9 7 17 18 17 23 0 6 7 16
15 23 12 10 15 10 15 -2 0 -8 -6 -20 -12 -28 -7 -7 -1 -5 14 6 15 10 26 25 23
31 -6 18 72 40 87 25 6 -6 24 -8 39 -5 18 3 36 0 46 -8 17 -13 17 -13 0 11 -9
14 -20 32 -23 40 -3 8 -13 31 -23 50 -14 30 -15 39 -3 63 7 15 20 27 28 27 8
0 13 -4 9 -9 -3 -5 -1 -12 4 -15 5 -3 11 8 15 24 7 35 15 40 14 8z m579 0 c-3
-8 -6 -5 -6 6 -1 11 2 17 5 13 3 -3 4 -12 1 -19z m591 -3 c12 -12 -36 -4 -54
10 -17 13 -16 14 15 5 18 -5 36 -12 39 -15z m258 -2 c-10 -10 -19 5 -10 18 6
11 8 11 12 0 2 -7 1 -15 -2 -18z m-401 -13 c9 -16 11 -30 6 -30 -5 0 -14 14
-20 30 -5 17 -8 30 -6 30 3 0 11 -13 20 -30z m175 14 c0 -8 -5 -12 -10 -9 -6
4 -8 11 -5 16 9 14 15 11 15 -7z m90 0 c0 -2 -9 -4 -20 -4 -11 0 -20 4 -20 9
0 5 9 7 20 4 11 -3 20 -7 20 -9z m60 4 c0 -12 -38 -10 -45 2 -4 6 5 9 19 8 15
-1 26 -6 26 -10z m-1685 -17 c-3 -6 -11 -11 -17 -11 -6 0 -6 6 2 15 14 17 26
13 15 -4z m888 4 c-3 -9 -8 -14 -10 -11 -3 3 -2 9 2 15 9 16 15 13 8 -4z m577
-11 c0 -2 -9 0 -20 6 -11 6 -20 13 -20 16 0 2 9 0 20 -6 11 -6 20 -13 20 -16z
m-1051 -27 c1 -5 -3 -5 -9 -2 -5 3 -10 16 -9 28 0 21 1 21 9 2 5 -11 9 -24 9
-28z m56 -25 c-5 -5 -25 43 -25 61 1 7 7 -3 16 -22 8 -19 12 -36 9 -39z m205
16 c0 -12 -14 -9 -38 8 -12 8 -20 20 -17 25 6 9 54 -20 55 -33z m250 27 c-7
-8 -9 -15 -4 -15 5 -1 -4 -12 -21 -25 -18 -15 -24 -25 -15 -24 21 1 88 27 73
28 -7 1 -13 6 -13 11 0 6 21 10 46 10 27 0 43 -4 39 -10 -3 -5 2 -10 12 -10
10 -1 32 -12 48 -26 l30 -25 -40 16 c-58 24 -81 25 -82 3 -1 -12 5 -18 18 -18
11 0 17 5 14 10 -3 6 -2 10 3 10 6 0 12 -6 15 -13 3 -8 0 -14 -7 -14 -6 0 -24
-3 -40 -7 -25 -6 -28 -5 -23 13 4 17 2 19 -13 11 -26 -14 -30 -13 -23 8 6 14
4 15 -9 4 -19 -15 -86 -11 -93 6 -3 9 2 12 14 10 10 -2 17 0 17 4 -1 10 46 58
57 58 5 0 4 -7 -3 -15z m368 -10 c-3 -3 -9 2 -12 12 -6 14 -5 15 5 6 7 -7 10
-15 7 -18z m-675 -50 c-2 -8 8 -20 24 -29 16 -9 22 -15 12 -16 -8 0 -26 11
-39 25 -13 14 -20 25 -16 25 5 0 0 12 -9 28 l-18 27 26 -24 c14 -13 23 -29 20
-36z m552 45 c3 -5 2 -10 -4 -10 -5 0 -13 5 -16 10 -3 6 -2 10 4 10 5 0 13 -4
16 -10z m195 -30 c0 -6 25 -8 63 -6 40 3 55 2 42 -4 -11 -5 -38 -9 -60 -9 -32
-1 -49 6 -75 29 l-35 31 33 -16 c17 -8 32 -20 32 -25z m243 33 c-7 -2 -21 -2
-30 0 -10 3 -4 5 12 5 17 0 24 -2 18 -5z m-150 -10 c-7 -2 -19 -2 -25 0 -7 3
-2 5 12 5 14 0 19 -2 13 -5z m-967 -53 c8 0 14 -2 14 -4 0 -2 3 -11 6 -20 3
-9 1 -16 -5 -16 -6 0 -11 6 -11 14 0 8 -7 16 -15 20 -8 3 -15 4 -15 2 0 -10
29 -69 30 -60 0 17 27 25 56 18 33 -9 30 -19 -7 -20 -17 -1 -35 -7 -40 -15 -6
-11 -13 -9 -33 10 -24 23 -44 67 -24 55 6 -4 8 -1 6 7 -3 8 -9 13 -14 12 -5
-1 -10 9 -10 21 l-2 23 26 -24 c14 -12 31 -23 38 -23z m323 34 c4 3 8 -1 8 -9
0 -8 -6 -16 -13 -19 -8 -3 -11 0 -7 10 6 16 -16 11 -53 -13 -17 -11 -28 -10
-68 3 -60 21 -54 29 7 10 27 -8 49 -10 53 -5 3 5 -1 9 -8 9 -9 0 -9 3 2 10 8
5 22 7 32 4 9 -2 20 1 24 8 6 9 9 9 12 0 2 -7 7 -10 11 -8z m697 7 c-4 -5 3
-7 14 -4 11 3 20 0 20 -6 0 -17 -47 -13 -54 4 -3 9 0 15 10 15 8 0 13 -4 10
-9z m-1101 -38 c9 -21 23 -46 33 -57 16 -18 16 -18 -5 -7 -13 6 -23 8 -23 4 0
-13 -27 42 -34 70 -10 40 11 33 29 -10z m1208 30 c-13 -2 -33 -2 -45 0 -13 2
-3 4 22 4 25 0 35 -2 23 -4z m-1386 -35 c-3 -8 -6 -5 -6 6 -1 11 2 17 5 13 3
-3 4 -12 1 -19z m328 -18 c10 -11 16 -20 13 -20 -3 0 -13 9 -23 20 -10 11 -16
20 -13 20 3 0 13 -9 23 -20z m800 4 c15 -10 32 -13 42 -9 17 7 16 8 -2 15 -17
7 -14 9 13 9 17 1 32 -3 32 -9 0 -5 -6 -9 -12 -7 -7 1 -12 -4 -10 -10 1 -7 -3
-12 -10 -10 -7 1 -12 -8 -13 -20 0 -12 -4 -25 -9 -30 -5 -5 -7 1 -3 15 3 12 1
22 -3 22 -5 0 -20 11 -34 25 -29 29 -26 32 9 9z m152 10 c-3 -3 -12 -4 -19 -1
-8 3 -5 6 6 6 11 1 17 -2 13 -5z m-603 -15 c-5 -9 2 -10 22 -6 l29 6 -28 -13
c-25 -11 -26 -14 -13 -25 8 -7 21 -9 27 -5 8 4 9 3 5 -5 -4 -7 -13 -10 -19 -8
-7 2 -21 0 -32 -6 -16 -8 -18 -7 -7 4 18 20 15 33 -5 18 -15 -11 -14 -10 1 9
15 17 16 22 5 22 -8 0 -20 -5 -26 -11 -6 -6 -17 -8 -24 -3 -9 5 0 12 27 20 21
6 40 12 42 13 2 1 0 -4 -4 -10z m196 1 c8 -5 11 -10 5 -10 -5 0 -17 5 -25 10
-8 5 -10 10 -5 10 6 0 17 -5 25 -10z m150 -30 c0 -13 -1 -13 -10 0 -5 8 -10
22 -10 30 0 13 1 13 10 0 5 -8 10 -22 10 -30z m-1781 6 c13 0 27 -8 29 -16 5
-13 3 -13 -14 0 -18 14 -18 14 -4 -5 8 -11 18 -22 22 -25 4 -3 3 -12 -2 -20
-8 -12 -10 -12 -10 -1 0 11 -3 11 -16 0 -14 -12 -14 -14 3 -20 12 -6 9 -7 -13
-5 -17 1 -41 10 -53 18 l-23 16 22 24 c18 19 19 24 6 26 -9 2 -13 8 -10 13 3
6 13 7 23 4 9 -4 27 -8 40 -9z m1337 -6 c-10 -3 -17 -10 -16 -14 2 -12 -51
-46 -71 -46 -9 0 -19 -9 -22 -20 -3 -12 -14 -20 -27 -20 -13 0 -19 -4 -14 -11
8 -13 10 -14 -68 23 -32 15 -58 31 -58 34 0 9 54 -6 60 -16 8 -14 90 -22 90
-9 0 5 -3 8 -7 6 -5 -2 -21 2 -38 9 l-30 14 30 -1 c89 -3 104 1 137 35 18 19
37 32 42 28 5 -3 2 -8 -8 -12z m461 -2 c-3 -8 -6 -5 -6 6 -1 11 2 17 5 13 3
-3 4 -12 1 -19z m-662 -6 c-3 -3 -11 0 -18 7 -9 10 -8 11 6 5 10 -3 15 -9 12
-12z m-902 -16 c10 10 19 -56 12 -96 -7 -44 -33 -59 -77 -44 -13 4 -27 7 -31
6 -5 -1 -5 2 -2 8 4 6 -1 18 -11 25 -18 13 -18 15 -2 45 11 18 13 28 5 24 -8
-5 -9 -4 -2 4 6 5 26 19 45 30 29 17 37 18 46 6 6 -7 13 -11 17 -8z m1527 -9
c0 -5 -4 -5 -10 -2 -5 3 -10 14 -10 23 0 15 2 15 10 2 5 -8 10 -19 10 -23z
m-370 19 c0 -2 -7 -6 -15 -10 -8 -3 -15 -1 -15 4 0 6 7 10 15 10 8 0 15 -2 15
-4z m285 -6 c3 -5 1 -10 -4 -10 -6 0 -11 5 -11 10 0 6 2 10 4 10 3 0 8 -4 11
-10z m-648 -40 c7 0 13 -4 13 -10 0 -5 11 -12 25 -16 19 -5 23 -9 15 -19 -8
-9 -7 -14 2 -18 8 -4 7 -6 -4 -6 -10 -1 -30 13 -45 29 -14 17 -32 30 -38 30
-13 0 -55 33 -55 44 0 3 17 -3 37 -14 21 -11 43 -20 50 -20z m178 30 c18 -8
17 -9 -7 -9 -16 -1 -28 4 -28 9 0 12 8 12 35 0z m-649 -9 c-3 -5 -23 -18 -44
-29 -29 -15 -39 -17 -39 -6 0 7 4 11 8 8 4 -2 23 4 41 15 39 23 41 24 34 12z
m1029 -1 c3 -5 2 -10 -4 -10 -5 0 -13 5 -16 10 -3 6 -2 10 4 10 5 0 13 -4 16
-10z m45 -20 c0 -16 -2 -30 -4 -30 -2 0 -6 14 -8 30 -3 17 -1 30 4 30 4 0 8
-13 8 -30z m-290 15 c0 -7 -39 -26 -71 -35 -48 -14 -32 4 19 21 26 9 48 17 50
18 1 0 2 -1 2 -4z m120 -11 c-8 -8 -23 -20 -34 -26 -14 -6 -11 -1 8 16 32 29
45 34 26 10z m227 -14 c-7 -32 -37 -84 -44 -76 -3 2 1 15 7 28 10 19 10 21 -1
11 -21 -21 -31 -15 -15 8 8 12 12 29 8 38 -5 14 -4 14 11 2 15 -12 17 -11 17
3 0 9 5 16 11 16 7 0 9 -11 6 -30z m-1097 6 c0 -2 -7 -9 -15 -16 -13 -11 -14
-10 -9 4 5 14 24 23 24 12z m784 -32 c-10 -14 -23 -23 -31 -20 -8 3 -25 -1
-39 -10 -13 -9 -24 -14 -24 -11 0 9 59 49 75 51 8 1 18 5 21 9 15 15 14 6 -2
-19z m219 -3 c-3 -11 -12 -22 -20 -25 -14 -6 -11 5 10 32 13 17 16 15 10 -7z
m-152 -24 c-16 -16 -25 -1 -10 16 8 8 16 11 18 5 2 -5 -2 -15 -8 -21z m245 -9
c-9 -12 -16 -19 -16 -15 0 11 24 47 28 42 2 -2 -3 -14 -12 -27z m-1136 -3 c-7
-8 -22 -15 -34 -15 -17 1 -16 3 9 15 39 18 40 18 25 0z m554 -26 c-2 -5 -16
-4 -30 1 -19 7 -23 7 -18 -2 5 -8 2 -9 -10 -5 -10 4 -24 7 -32 7 -8 0 -14 4
-14 9 0 4 12 6 26 3 18 -3 25 -1 20 6 -4 7 5 7 29 0 19 -6 32 -15 29 -19z
m261 21 c-3 -5 -11 -10 -16 -10 -6 0 -7 5 -4 10 3 6 11 10 16 10 6 0 7 -4 4
-10z m-798 -22 c-3 -8 -6 -5 -6 6 -1 11 2 17 5 13 3 -3 4 -12 1 -19z m410 16
c-3 -3 -12 -4 -19 -1 -8 3 -5 6 6 6 11 1 17 -2 13 -5z m480 0 c-3 -3 -12 -4
-19 -1 -8 3 -5 6 6 6 11 1 17 -2 13 -5z m-1372 -22 c-3 -3 -11 0 -18 7 -9 10
-8 11 6 5 10 -3 15 -9 12 -12z m1080 -2 c-3 -5 -16 -10 -28 -9 -20 1 -20 2 3
9 14 4 26 8 28 9 2 1 0 -3 -3 -9z m111 -5 c-1 -8 -6 -18 -11 -22 -4 -5 -5 -2
0 6 6 11 4 13 -8 8 -10 -3 -17 -2 -17 2 0 9 16 18 32 20 3 1 5 -6 4 -14z
m-1129 -1 c-3 -3 -12 -4 -19 -1 -8 3 -5 6 6 6 11 1 17 -2 13 -5z m83 -4 c0 -5
-5 -10 -11 -10 -5 0 -7 5 -4 10 3 6 8 10 11 10 2 0 4 -4 4 -10z m320 5 c0 -10
-45 -23 -55 -17 -5 3 1 9 15 13 33 9 40 10 40 4z m545 -5 c3 -5 -1 -10 -9 -10
-9 0 -16 5 -16 10 0 6 4 10 9 10 6 0 13 -4 16 -10z m975 -15 c-7 -9 -23 -21
-34 -27 -16 -8 -14 -3 8 21 29 31 51 36 26 6z m-870 11 c0 -3 -4 -8 -10 -11
-5 -3 -10 -1 -10 4 0 6 5 11 10 11 6 0 10 -2 10 -4z m500 -26 c0 -5 -5 -10
-11 -10 -5 0 -7 5 -4 10 3 6 8 10 11 10 2 0 4 -4 4 -10z m-700 -10 c20 -6 21
-8 5 -8 -11 0 -29 3 -40 8 -25 11 1 11 35 0z m-43 -25 c0 -8 -4 -15 -9 -15 -4
0 -8 7 -8 15 0 8 4 15 8 15 5 0 9 -7 9 -15z m62 -16 c-9 -17 -13 -19 -20 -8
-5 8 -3 16 4 21 22 14 28 8 16 -13z m161 17 c0 -3 -4 -8 -10 -11 -5 -3 -10 -1
-10 4 0 6 5 11 10 11 6 0 10 -2 10 -4z m-1165 -16 c-3 -5 -10 -10 -16 -10 -5
0 -9 5 -9 10 0 6 7 10 16 10 8 0 12 -4 9 -10z m180 -60 c3 -5 1 -10 -4 -10 -6
0 -11 5 -11 10 0 6 2 10 4 10 3 0 8 -4 11 -10z m375 -20 c-8 -5 -19 -10 -25
-10 -5 0 -3 5 5 10 8 5 20 10 25 10 6 0 3 -5 -5 -10z m1655 -20 c-3 -5 -11
-10 -16 -10 -6 0 -7 5 -4 10 3 6 11 10 16 10 6 0 7 -4 4 -10z m-92 -7 c3 -5
-8 -8 -25 -9 -20 -1 -25 2 -16 7 16 11 35 11 41 2z m-1023 -17 c0 -8 -7 -16
-15 -20 -13 -4 -14 -2 -5 14 13 23 20 26 20 6z m1215 6 c-34 -29 -87 -63 -91
-59 -2 2 17 18 43 36 46 29 68 40 48 23z m-215 -17 c-7 -9 -15 -13 -19 -10 -3
3 1 10 9 15 21 14 24 12 10 -5z m150 12 c0 -2 -10 -12 -22 -23 l-23 -19 19 23
c18 21 26 27 26 19z m-861 -17 c-9 -5 -32 -11 -50 -14 -19 -2 -42 -7 -51 -11
-10 -4 -18 -3 -18 3 0 12 36 26 48 18 5 -3 22 -1 38 4 39 11 53 11 33 0z m761
6 c0 -2 -7 -7 -16 -10 -8 -3 -12 -2 -9 4 6 10 25 14 25 6z m-1220 -26 c0 -5
-4 -10 -10 -10 -5 0 -10 5 -10 10 0 6 5 10 10 10 6 0 10 -4 10 -10z m-915 -10
c3 -6 -1 -7 -9 -4 -18 7 -21 14 -7 14 6 0 13 -4 16 -10z m1165 6 c0 -2 -7 -6
-15 -10 -8 -3 -15 -1 -15 4 0 6 7 10 15 10 8 0 15 -2 15 -4z m912 -19 c-12
-13 -22 -29 -22 -35 0 -7 -5 -12 -11 -12 -5 0 -7 -5 -3 -12 4 -7 3 -8 -5 -4
-9 6 -9 12 1 24 22 30 51 62 56 62 3 0 -4 -10 -16 -23z m-2087 -7 c17 -11 36
-20 44 -20 7 0 28 -13 46 -29 23 -20 49 -31 84 -36 28 -4 54 -11 57 -17 4 -6
-1 -8 -14 -4 -11 4 -23 2 -27 -4 -3 -5 1 -10 9 -10 8 0 17 -4 20 -8 3 -5 -8
-6 -24 -4 -19 3 -27 9 -23 18 3 9 -1 14 -12 14 -17 0 -92 40 -134 72 -12 9
-39 20 -58 24 -25 5 -31 9 -21 15 18 12 19 12 53 -11z m1255 15 c0 -2 -10 -9
-22 -15 -22 -11 -22 -10 -4 4 21 17 26 19 26 11z m950 -9 c0 -2 -8 -10 -17
-17 -16 -13 -17 -12 -4 4 13 16 21 21 21 13z m-1247 -13 c-7 -2 -19 -2 -25 0
-7 3 -2 5 12 5 14 0 19 -2 13 -5z m50 -9 c-5 -14 -1 -16 20 -12 15 3 24 1 21
-3 -3 -5 1 -9 8 -10 7 0 4 -4 -7 -9 -27 -12 -43 -12 -25 0 12 8 8 10 -15 12
-16 1 -41 1 -55 0 l-25 -1 25 14 c19 10 27 10 32 2 5 -8 8 -6 8 6 0 9 4 17 10
17 5 0 7 -7 3 -16z m152 -13 c-22 -10 -44 -16 -50 -12 -5 3 -2 7 8 9 9 2 17 7
17 11 0 4 15 7 33 8 l32 2 -40 -18z m989 -22 c-11 -12 -14 -23 -9 -27 15 -11
17 -33 4 -48 -17 -20 -28 -17 -22 6 3 11 9 17 14 14 5 -3 6 3 2 12 -6 16 -7
16 -18 0 -20 -27 -26 -18 -10 15 20 37 49 68 54 56 1 -4 -5 -17 -15 -28z
m-924 21 c-8 -5 -19 -10 -25 -10 -5 0 -3 5 5 10 8 5 20 10 25 10 6 0 3 -5 -5
-10z m760 -4 c0 -2 -8 -10 -17 -17 -16 -13 -17 -12 -4 4 13 16 21 21 21 13z
m186 -24 c-17 -16 -18 -16 -5 5 7 12 15 20 18 17 3 -2 -3 -12 -13 -22z m43 -1
c-13 -11 -26 -17 -29 -14 -3 2 6 13 20 23 32 24 40 16 9 -9z m-2189 11 c0 -5
15 -16 33 -25 21 -10 26 -16 14 -16 -10 -1 -29 6 -42 15 -25 17 -33 34 -15 34
6 0 10 -4 10 -8z m160 -2 c-8 -5 -22 -9 -30 -9 -10 0 -8 3 5 9 27 12 43 12 25
0z m710 -5 c-14 -8 -29 -14 -35 -14 -5 0 1 6 15 14 14 8 30 14 35 14 6 0 -1
-6 -15 -14z m1174 -19 c-9 -15 -19 -25 -21 -22 -3 2 3 16 13 30 9 15 19 25 21
22 3 -2 -3 -16 -13 -30z m-897 18 c-3 -3 -12 -4 -19 -1 -8 3 -5 6 6 6 11 1 17
-2 13 -5z m-937 -20 c0 -2 -9 -4 -20 -4 -11 0 -20 4 -20 9 0 5 9 7 20 4 11 -3
20 -7 20 -9z m318 -15 c-3 -8 -7 -3 -11 10 -4 17 -3 21 5 13 5 -5 8 -16 6 -23z
m542 27 c0 -2 -11 -6 -25 -8 -13 -3 -22 -1 -19 3 5 9 44 13 44 5z m1000 -15
c-5 -11 -15 -23 -21 -27 -6 -3 -3 5 6 20 20 30 30 35 15 7z m-86 -3 c-5 -8 -2
-9 12 -4 10 4 15 4 11 0 -4 -4 -2 -13 3 -19 7 -9 6 -16 -3 -24 -11 -8 -16 -5
-26 15 -10 23 -8 44 5 44 3 0 2 -5 -2 -12z m-1974 -7 c0 -6 -4 -13 -10 -16 -5
-3 -10 1 -10 9 0 9 5 16 10 16 6 0 10 -4 10 -9z m-56 -9 c2 -4 -7 -9 -20 -10
-15 -1 -22 2 -19 8 7 12 32 13 39 2z m165 -28 c2 -2 -10 -4 -27 -4 -16 0 -39
-3 -49 -6 -16 -6 -16 -5 2 9 17 14 59 14 74 1z m2141 12 c0 -2 -9 -6 -20 -9
-11 -3 -18 -1 -14 4 5 9 34 13 34 5z m-487 -21 c-3 -9 -8 -14 -10 -11 -3 3 -2
9 2 15 9 16 15 13 8 -4z m-528 -107 c-14 -10 -15 -7 -7 57 l7 60 5 -55 c3 -30
1 -58 -5 -62z m475 108 c0 -3 -4 -8 -10 -11 -5 -3 -10 -1 -10 4 0 6 5 11 10
11 6 0 10 -2 10 -4z m190 -10 c0 -3 -4 -8 -10 -11 -5 -3 -10 -1 -10 4 0 6 5
11 10 11 6 0 10 -2 10 -4z m350 -6 c11 -7 0 -10 -37 -10 -28 0 -60 -3 -70 -7
-10 -3 -15 -2 -10 2 4 5 26 12 50 16 23 3 44 7 47 8 3 0 12 -4 20 -9z m-243
-16 c-3 -3 -12 -4 -19 -1 -8 3 -5 6 6 6 11 1 17 -2 13 -5z m-964 -47 c-3 -5
-10 -2 -15 7 -5 9 -13 14 -18 11 -4 -3 -11 2 -14 11 -5 13 -1 12 24 -2 16 -10
26 -22 23 -27z m1190 36 c-7 -2 -19 -2 -25 0 -7 3 -2 5 12 5 14 0 19 -2 13 -5z
m-933 -11 c0 -5 -7 -9 -15 -9 -8 0 -12 4 -9 9 3 4 9 8 15 8 5 0 9 -4 9 -8z
m460 -2 c0 -5 -12 -10 -27 -9 l-28 1 25 8 c14 4 26 8 28 9 1 1 2 -3 2 -9z
m290 -1 c0 -6 8 -8 18 -5 44 12 87 17 71 7 -8 -5 -27 -11 -42 -13 -14 -2 -29
-7 -33 -11 -4 -4 -17 -7 -28 -6 -12 0 -15 3 -8 6 19 8 14 21 -10 26 -20 4 -19
4 5 6 15 0 27 -4 27 -10z m-203 -5 c-3 -3 -12 -4 -19 -1 -8 3 -5 6 6 6 11 1
17 -2 13 -5z m348 -4 c-3 -5 -15 -10 -25 -10 -10 0 -20 -6 -22 -12 -4 -10 -10
-10 -29 -2 -23 11 -22 12 21 22 61 13 62 13 55 2z m-482 -14 c10 -8 14 -17 8
-20 -5 -3 -11 0 -14 6 -3 10 -8 10 -23 -2 -17 -14 -18 -14 -6 2 10 13 10 17 0
21 -9 4 -9 6 2 6 8 0 23 -6 33 -13z m572 4 c3 -6 -4 -10 -17 -10 -18 0 -20 2
-8 10 19 12 18 12 25 0z m-440 -10 c7 -11 -9 -11 -45 0 -24 8 -24 8 7 9 17 1
35 -3 38 -9z m199 -16 c15 -6 15 -8 -1 -20 -27 -20 -54 -18 -28 3 19 15 19 15
-10 9 -22 -5 -26 -4 -15 4 17 11 32 12 54 4z m86 -4 c8 -5 11 -10 5 -10 -5 0
-17 5 -25 10 -8 5 -10 10 -5 10 6 0 17 -5 25 -10z m-837 -15 c-3 -9 -8 -14
-10 -11 -3 3 -2 9 2 15 9 16 15 13 8 -4z m527 0 c-7 -9 -15 -13 -19 -10 -3 3
1 10 9 15 21 14 24 12 10 -5z m374 -9 c-21 -15 -30 -14 -19 3 3 6 14 11 23 11
13 0 13 -2 -4 -14z m-124 -16 c0 -5 -5 -10 -11 -10 -5 0 -7 5 -4 10 3 6 8 10
11 10 2 0 4 -4 4 -10z m169 6 c-2 -2 -15 -9 -29 -15 -24 -11 -24 -11 -6 3 16
13 49 24 35 12z m-1059 -66 c0 -8 -9 -1 -20 15 -11 17 -20 35 -20 40 1 16 40
-38 40 -55z m850 50 c0 -5 -5 -10 -11 -10 -5 0 -7 5 -4 10 3 6 8 10 11 10 2 0
4 -4 4 -10z m-61 -4 c-2 -2 -15 -9 -29 -16 -23 -12 -24 -12 -11 3 7 10 20 17
29 17 8 0 13 -2 11 -4z m-872 -18 c-2 -7 -10 -12 -17 -10 -8 2 -10 -4 -6 -15
5 -16 4 -15 -9 1 -12 16 -12 22 -2 28 19 12 39 9 34 -4z m306 -3 c4 -8 3 -16
-1 -19 -4 -3 -9 4 -9 15 -2 23 3 25 10 4z m880 8 c3 -5 -8 -8 -24 -9 -15 -1
-26 3 -23 7 6 11 41 12 47 2z m-1043 -9 c0 -13 -21 -44 -30 -44 -6 0 -10 8
-10 18 0 14 2 15 10 2 8 -12 10 -11 10 8 0 12 5 22 10 22 6 0 10 -3 10 -6z
m417 -10 c-3 -3 -12 -4 -19 -1 -8 3 -5 6 6 6 11 1 17 -2 13 -5z m-317 -14 c8
-5 11 -10 5 -10 -5 0 -17 5 -25 10 -8 5 -10 10 -5 10 6 0 17 -5 25 -10z m930
0 c0 -5 -5 -10 -11 -10 -5 0 -7 5 -4 10 3 6 8 10 11 10 2 0 4 -4 4 -10z m-250
-10 c0 -5 -10 -10 -22 -9 -22 0 -22 1 -3 9 11 5 21 9 23 9 1 1 2 -3 2 -9z
m-910 -25 c0 -8 -4 -15 -10 -15 -5 0 -7 7 -4 15 4 8 8 15 10 15 2 0 4 -7 4
-15z m60 -23 c0 -7 -4 -10 -10 -7 -5 3 -10 16 -10 28 0 18 2 19 10 7 5 -8 10
-21 10 -28z m587 24 c4 -3 -19 -6 -51 -6 -31 0 -55 4 -52 8 5 9 94 7 103 -2z
m-730 -18 c-3 -8 -6 -5 -6 6 -1 11 2 17 5 13 3 -3 4 -12 1 -19z m43 2 c0 -11
-2 -20 -4 -20 -2 0 -6 9 -9 20 -3 11 -1 20 4 20 5 0 9 -9 9 -20z m143 -33 c-7
-11 -23 2 -23 19 0 12 2 12 14 2 8 -7 12 -16 9 -21z m587 19 c0 -3 -4 -8 -10
-11 -5 -3 -10 -1 -10 4 0 6 5 11 10 11 6 0 10 -2 10 -4z m-65 -16 c3 -5 1 -10
-4 -10 -6 0 -11 5 -11 10 0 6 2 10 4 10 3 0 8 -4 11 -10z m420 0 c-3 -5 -11
-10 -16 -10 -6 0 -7 5 -4 10 3 6 11 10 16 10 6 0 7 -4 4 -10z m103 -16 c-9 -8
-88 -12 -93 -4 -3 5 18 8 46 8 28 1 49 -1 47 -4z m-358 -14 c0 -5 -18 -10 -40
-10 -22 0 -40 5 -40 10 0 6 18 10 40 10 22 0 40 -4 40 -10z m235 -10 c-28 -12
-37 -12 -30 0 3 6 16 10 28 9 21 0 21 -1 2 -9z m-190 -19 c-3 -6 -11 -11 -17
-11 -6 0 -6 6 2 15 14 17 26 13 15 -4z m88 2 c-7 -2 -21 -2 -30 0 -10 3 -4 5
12 5 17 0 24 -2 18 -5z m-133 -23 c0 -13 -5 -18 -15 -14 -8 4 -12 10 -9 15 3
5 -2 6 -10 3 -8 -3 -23 -1 -33 5 -15 8 -10 10 25 11 35 0 42 -3 42 -20z m247
4 c-3 -3 -12 -4 -19 -1 -8 3 -5 6 6 6 11 1 17 -2 13 -5z m-900 -76 c-3 -7 -5
-2 -5 12 0 14 2 19 5 13 2 -7 2 -19 0 -25z m363 -12 c0 -2 -7 -9 -15 -16 -13
-11 -14 -10 -9 4 5 14 24 23 24 12z m20 -16 c-6 -11 -13 -20 -16 -20 -2 0 0 9
6 20 6 11 13 20 16 20 2 0 0 -9 -6 -20z m-603 -6 c-3 -3 -12 -4 -19 -1 -8 3
-5 6 6 6 11 1 17 -2 13 -5z m548 -24 c-3 -5 -21 -9 -38 -9 l-32 2 35 7 c19 4
36 8 38 9 2 0 0 -3 -3 -9z m80 0 c4 -6 -9 -10 -32 -9 -34 1 -35 2 -13 9 35 11
38 11 45 0z"/>
<path d="M910 1926 c0 -7 7 -13 15 -13 8 0 15 4 15 8 0 4 -7 9 -15 13 -9 3
-15 0 -15 -8z"/>
<path d="M1540 1853 c8 -3 24 -13 35 -22 20 -16 20 -16 1 7 -11 12 -26 22 -35
21 -14 0 -14 -1 -1 -6z"/>
<path d="M1465 1790 c-3 -5 -1 -10 4 -10 6 0 11 5 11 10 0 6 -2 10 -4 10 -3 0
-8 -4 -11 -10z"/>
<path d="M1435 1770 c6 -10 4 -12 -8 -7 -24 9 -21 2 7 -16 22 -15 23 -14 22 5
-1 12 -7 23 -15 26 -9 3 -11 0 -6 -8z"/>
<path d="M1510 1769 c0 -5 5 -7 10 -4 6 3 10 8 10 11 0 2 -4 4 -10 4 -5 0 -10
-5 -10 -11z"/>
<path d="M630 1622 c0 -5 -10 -14 -22 -21 l-23 -11 24 6 c15 4 21 2 17 -4 -3
-6 -1 -14 5 -18 7 -4 9 -3 5 4 -3 6 0 14 8 19 12 7 12 10 0 21 -8 7 -14 9 -14
4z"/>
<path d="M1123 1613 c9 -2 25 -2 35 0 9 3 1 5 -18 5 -19 0 -27 -2 -17 -5z"/>
<path d="M1718 1603 c-19 -5 -25 -23 -8 -23 19 0 25 -2 36 -11 16 -13 25 1 13
22 -10 19 -12 20 -41 12z"/>
<path d="M1777 1604 c-3 -3 4 -17 16 -30 13 -16 23 -20 28 -13 8 14 26 -37 25
-72 -1 -15 4 -26 11 -26 9 0 10 9 6 26 -4 14 -7 34 -7 45 0 10 -12 31 -27 47
-27 29 -40 35 -52 23z m38 -22 c-3 -3 -11 0 -18 7 -9 10 -8 11 6 5 10 -3 15
-9 12 -12z"/>
<path d="M1685 1559 c-4 -6 -5 -12 -2 -15 2 -3 7 2 10 11 7 17 1 20 -8 4z"/>
<path d="M1704 1494 c2 -16 32 -44 46 -44 4 0 7 7 7 15 0 9 -10 15 -24 15 -13
0 -22 4 -18 9 3 5 1 12 -4 15 -5 4 -8 -1 -7 -10z"/>
<path d="M1770 1445 c-7 -9 -8 -15 -2 -15 5 0 12 7 16 15 3 8 4 15 2 15 -2 0
-9 -7 -16 -15z"/>
<path d="M1485 1560 c3 -5 8 -10 11 -10 2 0 4 5 4 10 0 6 -5 10 -11 10 -5 0
-7 -4 -4 -10z"/>
<path d="M312 1429 c5 -16 58 -25 58 -10 0 6 -6 11 -14 11 -8 0 -22 3 -32 7
-12 4 -15 2 -12 -8z"/>
<path d="M837 1313 c-10 -9 -9 -33 1 -33 4 0 8 9 9 20 2 21 0 24 -10 13z"/>
<path d="M730 1455 c-10 -12 -10 -15 0 -15 9 0 9 -4 -1 -17 -13 -15 -12 -15
11 -3 16 8 20 15 12 18 -10 3 -10 7 -1 18 7 8 7 14 1 14 -5 0 -15 -7 -22 -15z"/>
<path d="M1420 1310 c0 -11 4 -20 9 -20 17 0 19 15 5 28 -12 11 -14 9 -14 -8z"/>
<path d="M1392 1295 c0 -16 2 -22 5 -12 2 9 2 23 0 30 -3 6 -5 -1 -5 -18z"/>
<path d="M1416 1256 c-13 -20 -13 -24 -2 -20 8 3 17 13 20 21 10 26 0 25 -18
-1z"/>
<path d="M1110 1393 c0 -16 20 -38 32 -38 7 0 13 -8 13 -17 0 -9 4 -20 9 -25
5 -4 6 -3 2 5 -4 6 -2 12 3 12 18 0 12 20 -14 45 -23 24 -45 33 -45 18z"/>
<path d="M1087 1362 c-17 -18 -17 -20 -1 -26 22 -9 34 4 25 27 -6 17 -8 17
-24 -1z"/>
<path d="M440 1380 c-13 -8 -12 -10 3 -10 9 0 17 5 17 10 0 12 -1 12 -20 0z"/>
<path d="M941 1226 c-1 -29 2 -37 10 -29 8 8 8 19 1 40 -10 28 -10 28 -11 -11z"/>
<path d="M982 1210 c0 -14 2 -19 5 -12 2 6 2 18 0 25 -3 6 -5 1 -5 -13z"/>
<path d="M835 1070 c-7 -11 22 -26 32 -16 4 3 -2 7 -13 7 -12 1 -7 4 11 9 l30
8 -27 1 c-15 0 -30 -4 -33 -9z"/>
<path d="M935 1069 c8 -12 56 -32 62 -25 5 4 -50 36 -62 36 -3 0 -3 -5 0 -11z"/>
<path d="M885 930 c-3 -5 -1 -10 4 -10 6 0 11 5 11 10 0 6 -2 10 -4 10 -3 0
-8 -4 -11 -10z"/>
<path d="M1000 930 c0 -6 5 -8 11 -4 6 3 16 0 21 -7 8 -12 9 -11 5 1 -4 18
-37 27 -37 10z"/>
<path d="M1000 899 c0 -5 9 -9 20 -9 11 0 20 2 20 4 0 2 -9 6 -20 9 -11 3 -20
1 -20 -4z"/>
<path d="M760 846 c0 -2 7 -9 15 -16 9 -7 15 -8 15 -2 0 5 -7 12 -15 16 -8 3
-15 4 -15 2z"/>
<path d="M923 808 c-13 -6 -23 -15 -23 -20 0 -5 11 -1 25 8 37 24 35 30 -2 12z"/>
<path d="M785 800 c3 -5 11 -10 16 -10 6 0 7 5 4 10 -3 6 -11 10 -16 10 -6 0
-7 -4 -4 -10z"/>
<path d="M185 1930 c-15 -16 -15 -22 -5 -35 7 -8 18 -15 24 -14 7 0 6 2 -1 6
-13 5 -18 35 -8 45 3 3 26 2 51 -2 25 -4 41 -3 37 1 -5 5 -25 11 -45 13 -27 4
-40 0 -53 -14z"/>
<path d="M211 1903 c7 -12 15 -20 18 -17 3 2 -3 12 -13 22 -17 16 -18 16 -5
-5z"/>
<path d="M301 1904 c0 -11 3 -14 6 -6 3 7 2 16 -1 19 -3 4 -6 -2 -5 -13z"/>
<path d="M260 1890 c0 -5 5 -10 10 -10 6 0 10 5 10 10 0 6 -4 10 -10 10 -5 0
-10 -4 -10 -10z"/>
<path d="M2278 1883 c7 -3 16 -2 19 1 4 3 -2 6 -13 5 -11 0 -14 -3 -6 -6z"/>
<path d="M170 1866 c0 -8 4 -17 9 -20 5 -4 7 3 4 14 -6 23 -13 26 -13 6z"/>
<path d="M2238 1873 c7 -3 16 -2 19 1 4 3 -2 6 -13 5 -11 0 -14 -3 -6 -6z"/>
<path d="M326 1853 c-6 -14 -5 -15 5 -6 7 7 10 15 7 18 -3 3 -9 -2 -12 -12z"/>
<path d="M2357 1839 c7 -7 15 -10 18 -7 3 3 -2 9 -12 12 -14 6 -15 5 -6 -5z"/>
<path d="M2409 1820 c13 -11 27 -20 32 -20 18 0 8 10 -23 25 l-33 16 24 -21z"/>
<path d="M2460 1795 c0 -5 5 -17 10 -25 5 -8 10 -10 10 -5 0 6 -5 17 -10 25
-5 8 -10 11 -10 5z"/>
<path d="M2420 1761 c0 -4 11 -13 25 -19 18 -8 25 -20 26 -39 0 -16 3 -22 6
-15 9 24 -6 58 -32 70 -14 6 -25 8 -25 3z"/>
<path d="M2286 1751 c-4 -5 3 -7 14 -4 23 6 26 13 6 13 -8 0 -17 -4 -20 -9z"/>
<path d="M2245 1730 c-3 -6 1 -7 9 -4 18 7 21 14 7 14 -6 0 -13 -4 -16 -10z"/>
<path d="M2421 1644 c0 -11 3 -14 6 -6 3 7 2 16 -1 19 -3 4 -6 -2 -5 -13z"/>
<path d="M2461 1624 c0 -11 3 -14 6 -6 3 7 2 16 -1 19 -3 4 -6 -2 -5 -13z"/>
<path d="M2379 1575 c-9 -25 -13 -42 -8 -40 9 6 33 75 27 80 -2 2 -11 -16 -19
-40z"/>
<path d="M2070 1551 c0 -6 4 -13 10 -16 6 -3 7 1 4 9 -7 18 -14 21 -14 7z"/>
<path d="M2469 1530 c-1 -5 -2 -14 -3 -18 -2 -14 -64 -81 -69 -75 -3 2 -14 0
-24 -6 -17 -10 -17 -11 2 -9 43 3 55 -2 48 -19 -4 -10 -11 -21 -17 -25 -7 -5
-7 -8 2 -8 7 0 15 7 18 15 4 10 14 13 29 9 13 -3 26 0 31 7 5 9 2 10 -9 6 -21
-8 -21 -3 -1 28 18 27 5 35 -16 10 -7 -8 -19 -15 -26 -15 -19 0 -6 27 16 33
20 5 47 47 31 47 -6 0 -8 7 -5 15 4 8 3 15 0 15 -3 0 -7 -4 -7 -10z"/>
<path d="M47 1507 c-3 -8 0 -21 8 -27 19 -15 27 3 11 25 -11 16 -14 16 -19 2z"/>
<path d="M2415 1510 c-16 -7 -17 -9 -3 -9 9 -1 20 4 23 9 7 11 7 11 -20 0z"/>
<path d="M2060 1493 c0 -11 10 -25 25 -31 14 -6 25 -8 25 -4 0 5 -11 19 -25
32 -24 22 -25 23 -25 3z"/>
<path d="M53 1356 c-3 -5 1 -14 10 -21 10 -7 17 -16 17 -21 0 -6 13 -18 30
-27 25 -15 29 -16 24 -2 -3 8 -1 15 5 15 6 0 11 -4 11 -9 0 -5 13 -19 30 -31
20 -14 28 -16 24 -7 -3 8 -15 19 -27 25 -20 10 -20 11 8 8 17 -2 22 -1 13 1
-10 2 -18 9 -18 14 0 5 -9 9 -21 9 -13 0 -18 4 -13 13 4 6 4 9 -1 5 -11 -10
-45 10 -45 27 0 15 -38 16 -47 1z m67 -48 c0 -6 -6 -5 -15 2 -8 7 -15 14 -15
16 0 2 7 1 15 -2 8 -4 15 -11 15 -16z"/>
<path d="M210 1366 c0 -2 8 -10 18 -17 15 -13 16 -12 3 4 -13 16 -21 21 -21
13z"/>
<path d="M26 1319 c21 -23 26 -24 22 -2 -2 9 -11 17 -21 19 -18 2 -18 2 -1
-17z"/>
<path d="M20 1306 c0 -4 5 -16 11 -28 8 -15 17 -18 35 -14 17 5 35 0 54 -14
17 -12 34 -18 40 -15 5 3 10 1 10 -6 0 -7 3 -9 7 -6 3 4 17 0 30 -8 21 -14 23
-14 23 1 0 10 -3 15 -6 11 -4 -3 -19 0 -35 9 -16 8 -29 12 -29 9 0 -9 -55 22
-69 39 -7 8 -19 12 -27 9 -8 -3 -21 0 -29 7 -8 7 -15 9 -15 6z"/>
<path d="M230 1255 c29 -16 80 -21 64 -5 -5 5 -27 12 -49 14 -39 5 -39 5 -15
-9z"/>
<path d="M140 1209 c27 -18 90 -50 90 -45 0 7 -85 56 -96 56 -5 0 -2 -5 6 -11z"/>
<path d="M2420 1080 c-19 -11 -31 -19 -27 -20 11 0 67 29 67 35 0 7 -1 7 -40
-15z"/>
<path d="M2389 1030 c-31 -26 -15 -26 18 0 14 11 21 20 15 20 -5 0 -20 -9 -33
-20z"/>
<path d="M2432 1022 c-22 -17 -22 -18 -3 -18 11 0 18 2 16 5 -3 2 0 10 6 18
15 18 9 16 -19 -5z"/>
<path d="M2141 1007 c-13 -21 -12 -21 5 -5 10 10 16 20 13 22 -3 3 -11 -5 -18
-17z"/>
<path d="M2329 1013 c-13 -16 -12 -17 4 -4 16 13 21 21 13 21 -2 0 -10 -8 -17
-17z"/>
<path d="M2012 995 c-7 -15 -11 -30 -8 -32 7 -7 28 36 24 49 -2 6 -9 -2 -16
-17z"/>
<path d="M2099 1003 c-13 -16 -12 -17 4 -4 16 13 21 21 13 21 -2 0 -10 -8 -17
-17z"/>
<path d="M2254 978 l-19 -21 28 18 c28 18 33 25 19 25 -5 0 -17 -10 -28 -22z"/>
<path d="M2326 985 c-11 -8 -15 -15 -10 -15 6 0 19 7 30 15 10 8 15 14 9 14
-5 0 -19 -6 -29 -14z"/>
<path d="M2014 898 l-19 -23 23 19 c21 18 27 26 19 26 -2 0 -12 -10 -23 -22z"/>
<path d="M1620 879 c0 -5 5 -7 10 -4 6 3 10 8 10 11 0 2 -4 4 -10 4 -5 0 -10
-5 -10 -11z"/>
<path d="M1945 864 l-30 -26 33 22 c17 12 32 23 32 26 0 7 -4 5 -35 -22z"/>
<path d="M2030 865 c-7 -9 -11 -18 -8 -20 3 -3 11 1 18 10 7 9 11 18 8 20 -3
3 -11 -1 -18 -10z"/>
<path d="M1562 838 c-15 -15 -16 -31 0 -26 6 2 12 12 14 21 3 20 2 21 -14 5z"/>
<path d="M1793 829 c-29 -11 -53 -24 -53 -29 0 -6 9 -6 23 -1 35 14 87 42 87
47 0 5 4 6 -57 -17z"/>
<path d="M2102 836 c-32 -18 -37 -25 -13 -19 11 3 26 11 32 19 13 16 12 16
-19 0z"/>
<path d="M2145 840 c-3 -5 -1 -10 4 -10 6 0 11 5 11 10 0 6 -2 10 -4 10 -3 0
-8 -4 -11 -10z"/>
<path d="M1600 830 c-9 -6 -10 -10 -3 -10 6 0 15 5 18 10 8 12 4 12 -15 0z"/>
<path d="M1722 818 c-7 -7 -18 -13 -24 -13 -6 0 -13 -6 -16 -13 -2 -8 2 -10
15 -5 20 7 58 43 45 43 -4 0 -14 -6 -20 -12z"/>
<path d="M108 806 c-28 -21 -21 -27 27 -25 25 2 45 4 45 5 0 1 -7 10 -16 18
-19 19 -33 20 -56 2z m45 -13 c-7 -2 -19 -2 -25 0 -7 3 -2 5 12 5 14 0 19 -2
13 -5z"/>
<path d="M1818 807 c-7 -7 -30 -21 -51 -31 -21 -10 -37 -20 -34 -22 2 -3 27 7
55 21 27 14 53 25 56 25 12 0 6 -20 -6 -20 -7 0 -22 -8 -33 -16 -19 -16 -19
-16 5 -9 26 8 80 45 80 54 0 12 -60 10 -72 -2z"/>
<path d="M1205 800 c-4 -6 -10 -8 -15 -5 -5 3 -12 0 -16 -6 -4 -7 -3 -9 4 -5
5 3 12 1 14 -5 3 -9 16 -9 53 -1 l50 11 -42 -3 c-48 -5 -54 0 -20 14 l22 9
-22 0 c-12 1 -25 -4 -28 -9z"/>
<path d="M1655 790 c-3 -5 -1 -10 4 -10 6 0 11 5 11 10 0 6 -2 10 -4 10 -3 0
-8 -4 -11 -10z"/>
<path d="M235 780 c3 -5 11 -10 16 -10 6 0 7 5 4 10 -3 6 -11 10 -16 10 -6 0
-7 -4 -4 -10z"/>
<path d="M1117 768 c-4 -12 -5 -23 -4 -25 6 -5 47 10 47 18 0 5 -8 5 -17 2
-16 -6 -16 -5 -4 10 11 15 11 17 -2 17 -8 0 -17 -10 -20 -22z"/>
<path d="M1688 763 c7 -3 16 -2 19 1 4 3 -2 6 -13 5 -11 0 -14 -3 -6 -6z"/>
<path d="M1347 746 c-4 -10 -1 -13 9 -9 15 6 19 23 5 23 -5 0 -11 -7 -14 -14z"/>
<path d="M1020 740 c0 -5 7 -7 15 -4 8 4 15 8 15 10 0 2 -7 4 -15 4 -8 0 -15
-4 -15 -10z"/>
<path d="M920 709 c-13 -9 -13 -10 1 -6 9 3 22 0 28 -6 9 -9 11 -8 6 6 -8 20
-14 21 -35 6z"/>
<path d="M840 690 c0 -5 4 -10 9 -10 6 0 13 5 16 10 3 6 -1 10 -9 10 -9 0 -16
-4 -16 -10z"/>
</g>
</svg>
